# xmcd
#
# Track frame offsets: 
#        151
#        12917
#        33620
#
# Disc length: 815 seconds
#
# Revision: 1
# Processed by: cddbd v1.5.2PL0 Copyright (c) Steve Scherf et al.
# Submitted via: ExactAudioCopy v1.0b3
#
DISCID=1c032d03
DTITLE=Alanis Morissette - So Pure
DYEAR=1999
DGENRE=Rock
TTITLE0=So Pure
TTITLE1=I Was Hoping (Acoustic Modern Rock Live)
TTITLE2=So Pure (pure ecstacy mix - extended version)
EXTD=YEAR: 1999
EXTT0=
EXTT1=
EXTT2=
PLAYORDER=
